# xmcd
#
# Track frame offsets:
#	150
#	19935
#	34185
#	56016
#	71839
#	87550
#	103541
#	119385
#	135974
#	151788
#	168834
#	184957
#	199595
#	215197
#	230609
#	244700
#	260671
#	276672
#	291734
#	308854
#
# Disc length: 4328 seconds
#
# Revision: 1
# Processed by: cddbd v1.5.2PL0 Copyright (c) Steve Scherf et al.
# Submitted via: audiograbber 1.83.01
#
DISCID=3710e614
DTITLE=Various Artist - 40 NAJBOLJIH CD1
DYEAR=2008
DGENRE=
TTITLE0=Nina Badric and Ljiljana Petrovic Buttler - Kralj zivota mog
TTITLE1=Luka Nizetic - Zaplesi sa mnom
TTITLE2=Lana - Zora bijela
TTITLE3=ET - Prazan stan
TTITLE4=Antonija Sola - Nebu pod oblak
TTITLE5=Goran Karan - Andele
TTITLE6=Hari Roncevic - Hej, hej mama
TTITLE7=Ruswaj - Dobar decko
TTITLE8=Teska industrija - Tako su mi zvijezde sjale
TTITLE9=Jacques Houdek - Koliko si me voljela
TTITLE10=Ivana Banfic - Treca sreca
TTITLE11=Leteci odred - Jos sam tvoj
TTITLE12=Franka Batelic - Ruza u kamenu
TTITLE13=Feminnem - Chanel 5
TTITLE14=Trik FX - Opasno
TTITLE15=Alan Hrzica - Ispod ovog neba
TTITLE16=Pero Galic - Dugo te nema
TTITLE17=Vlatka Pokos - Oci danju skrivam
TTITLE18=Emina Arapovic - Nosi me
TTITLE19=Karma - Temperatura
EXTD=
EXTT0=
EXTT1=
EXTT2=
EXTT3=
EXTT4=
EXTT5=
EXTT6=
EXTT7=
EXTT8=
EXTT9=
EXTT10=
EXTT11=
EXTT12=
EXTT13=
EXTT14=
EXTT15=
EXTT16=
EXTT17=
EXTT18=
EXTT19=
PLAYORDER=
